<svg width="80" height="80" viewBox="0 0 80 80" xmlns="http://www.w3.org/2000/svg"><path d="M12.392 14v15.95A9.993 9.993 0 0 1 4.732 25l3.464-2L0 20.804 2.885 25.8A11.996 11.996 0 0 0 13.392 32c4.524 0 8.463-2.503 10.508-6.2l2.885-4.996L18.588 23l3.466 2a9.996 9.996 0 0 1-7.662 4.95V14h5v-2h-5V7.874a4 4 0 1 0-2 0V12h-5v2h5zm1-8a2 2 0 1 0 .001-3.999A2 2 0 0 0 13.392 6zm39 48v15.95a9.993 9.993 0 0 1-7.66-4.95l3.464-2L40 60.804l2.885 4.997A11.997 11.997 0 0 0 53.392 72c4.524 0 8.463-2.503 10.508-6.2l2.885-4.996L58.588 63l3.466 2a9.996 9.996 0 0 1-7.662 4.95V54h5v-2h-5v-4.126a4 4 0 1 0-2 0V52h-5v2h5zm1-8a2 2 0 1 0 .001-3.999A2 2 0 0 0 53.392 46zm-40 14a2 2 0 1 0 .001-3.999A2 2 0 0 0 13.392 60zm40-40a2 2 0 1 0 .001-3.999A2 2 0 0 0 53.392 20z" fill-rule="evenodd"/></svg>