<svg height="105" viewBox="0 0 80 105" width="80" xmlns="http://www.w3.org/2000/svg"><path d="M20 10a5 5 0 0 1 10 0v50a5 5 0 0 1-10 0zm15 35a5 5 0 0 1 10 0v50a5 5 0 0 1-10 0zM20 75a5 5 0 0 1 10 0v20a5 5 0 0 1-10 0zm30-65a5 5 0 0 1 10 0v50a5 5 0 0 1-10 0zm0 65a5 5 0 0 1 10 0v20a5 5 0 0 1-10 0zM35 10a5 5 0 0 1 10 0v20a5 5 0 0 1-10 0zM5 45a5 5 0 0 1 10 0v50a5 5 0 0 1-10 0zm0-35a5 5 0 0 1 10 0v20a5 5 0 0 1-10 0zm60 35a5 5 0 0 1 10 0v50a5 5 0 0 1-10 0zm0-35a5 5 0 0 1 10 0v20a5 5 0 0 1-10 0z" fill-rule="evenodd"/></svg>