<svg height="120" viewBox="0 0 120 120" width="120" xmlns="http://www.w3.org/2000/svg"><path d="M9 0h2v20H9zm25.134.84l1.732 1-10 17.32-1.732-1zm-20 20l1.732 1-10 17.32-1.732-1zM58.16 4.134l1 1.732-17.32 10-1-1.732zm-40 40l1 1.732-17.32 10-1-1.732zM80 9v2H60V9zM20 69v2H0v-2zm79.32-55l-1 1.732-17.32-10L82 4zm-80 80l-1 1.732-17.32-10L2 84zm96.546-75.84l-1.732 1-10-17.32 1.732-1zm-100 100l-1.732 1-10-17.32 1.732-1zM38.16 24.134l1 1.732-17.32 10-1-1.732zM60 29v2H40v-2zm19.32 5l-1 1.732-17.32-10L62 24zm16.546 4.16l-1.732 1-10-17.32 1.732-1zM111 40h-2V20h2zm3.134.84l1.732 1-10 17.32-1.732-1zM40 49v2H20v-2zm19.32 5l-1 1.732-17.32-10L42 44zm16.546 4.16l-1.732 1-10-17.32 1.732-1zM91 60h-2V40h2zm3.134.84l1.732 1-10 17.32-1.732-1zm24.026 3.294l1 1.732-17.32 10-1-1.732zM39.32 74l-1 1.732-17.32-10L22 64zm16.546 4.16l-1.732 1-10-17.32 1.732-1zM71 80h-2V60h2zm3.134.84l1.732 1-10 17.32-1.732-1zm24.026 3.294l1 1.732-17.32 10-1-1.732zM120 89v2h-20v-2zm-84.134 9.16l-1.732 1-10-17.32 1.732-1zM51 100h-2V80h2zm3.134.84l1.732 1-10 17.32-1.732-1zm24.026 3.294l1 1.732-17.32 10-1-1.732zM100 109v2H80v-2zm19.32 5l-1 1.732-17.32-10 1-1.732zM31 120h-2v-20h2z" fill-rule="evenodd"/></svg>