<?xml version="1.0" encoding="iso-8859-1"?>
<!-- Generator: Adobe Illustrator 17.1.0, SVG Export Plug-In . SVG Version: 6.00 Build 0)  -->
<!DOCTYPE svg PUBLIC "-//W3C//DTD SVG 1.1//EN" "http://www.w3.org/Graphics/SVG/1.1/DTD/svg11.dtd">
<svg version="1.1" id="Capa_1" xmlns="http://www.w3.org/2000/svg" xmlns:xlink="http://www.w3.org/1999/xlink" x="0px" y="0px"
	 viewBox="0 0 463.713 463.713" style="enable-background:new 0 0 463.713 463.713;" xml:space="preserve">
<g>
	<path d="M251.857,293.408c0-11.028-8.972-20-20-20s-20,8.972-20,20c0,7.383,4.032,13.829,10,17.294v143.011c0,5.523,4.478,10,10,10
		s10-4.477,10-10V310.702C247.824,307.238,251.857,300.792,251.857,293.408z"/>
	<path d="M307.872,84.008h11.602c4.856,0,9.011-3.489,9.85-8.272l11.229-64.006c0.954-5.44-2.682-10.624-8.122-11.578
		c-5.437-0.954-10.624,2.681-11.577,8.122l-9.777,55.734H152.638L142.86,8.274c-0.954-5.439-6.136-9.078-11.577-8.122
		c-5.44,0.954-9.076,6.138-8.122,11.578l11.229,64.006c0.839,4.783,4.993,8.272,9.85,8.272h11.602l7.322,41.736
		c10.052,57.005-2.697,114.512-35.898,161.928c-2.783,3.976-2.312,9.375,1.12,12.807c40.931,40.93,63.472,95.349,63.472,153.233
		c0,5.523,4.478,10,10,10s10-4.477,10-10c0-60.459-22.518-117.462-63.579-161.426c30.65-47.117,43.374-102.632,36.35-158.279h94.458
		c-7.023,55.651,5.701,111.164,36.35,158.279c-41.062,43.964-63.579,100.967-63.579,161.426c0,5.523,4.478,10,10,10s10-4.477,10-10
		c0-57.884,22.541-112.303,63.472-153.233c3.432-3.432,3.903-8.832,1.12-12.807c-33.201-47.416-45.95-104.923-35.896-161.937
		L307.872,84.008z M287.567,84.008l-5.262,30H181.409l-5.263-30H287.567z"/>
</g>
<g>
</g>
<g>
</g>
<g>
</g>
<g>
</g>
<g>
</g>
<g>
</g>
<g>
</g>
<g>
</g>
<g>
</g>
<g>
</g>
<g>
</g>
<g>
</g>
<g>
</g>
<g>
</g>
<g>
</g>
</svg>
