<?xml version="1.0" encoding="iso-8859-1"?>
<!-- Generator: Adobe Illustrator 19.0.0, SVG Export Plug-In . SVG Version: 6.00 Build 0)  -->
<svg version="1.1" id="Capa_1" xmlns="http://www.w3.org/2000/svg" xmlns:xlink="http://www.w3.org/1999/xlink" x="0px" y="0px"
	 viewBox="0 0 409.397 409.397" style="enable-background:new 0 0 409.397 409.397;" xml:space="preserve">
<g>
	<g>
		<path d="M404.239,368.662h-7.695v-4.321c0-13.46-10.952-24.412-24.412-24.412h-94.5c-13.46,0-24.412,10.952-24.412,24.412v4.321
			h-7.695c-2.826,0-5.12,2.289-5.12,5.12v30.495c0,2.831,2.294,5.12,5.12,5.12h158.715c2.826,0,5.12-2.289,5.12-5.12v-30.495
			C409.359,370.951,407.065,368.662,404.239,368.662z M263.454,364.341c0-7.813,6.359-14.172,14.172-14.172h94.505
			c7.813,0,14.172,6.354,14.172,14.172v4.321H263.454V364.341z M399.119,399.157H250.644v-20.255h148.475V399.157z"/>
	</g>
</g>
<g>
	<g>
		<path d="M405.309,137.464c-3.215-4.229-7.885-6.958-13.143-7.68c-4.68-0.65-9.283,0.461-13.225,2.944l-74.588-98.202
			c3.451-3.133,5.745-7.27,6.385-11.945c0.717-5.263-0.655-10.496-3.866-14.73c-6.635-8.73-19.139-10.445-27.873-3.804
			l-106.65,81.009c-8.735,6.63-10.445,19.133-3.809,27.868c3.215,4.229,7.885,6.953,13.148,7.675
			c0.917,0.123,1.828,0.184,2.739,0.184c3.732,0,7.332-1.106,10.506-3.108l26.824,35.313L14.704,291.724
			c-7.706,5.33-12.764,13.363-14.239,22.62s0.835,18.458,6.502,25.923c5.663,7.465,13.911,12.16,23.219,13.23
			c1.326,0.148,2.647,0.225,3.963,0.225c7.9,0,15.473-2.724,21.647-7.854l191.852-158.781l21.847,28.764
			c-3.451,3.133-5.745,7.276-6.385,11.95c-0.722,5.268,0.655,10.496,3.866,14.73c3.912,5.141,9.856,7.849,15.867,7.849
			c4.193,0,8.417-1.321,12.006-4.045l106.65-81.009c4.229-3.21,6.958-7.88,7.68-13.143
			C409.897,146.92,408.524,141.693,405.309,137.464z M190.218,108.576c-2.058,1.557-4.593,2.212-7.142,1.874
			c-2.555-0.348-4.818-1.674-6.38-3.727c-3.215-4.239-2.386-10.307,1.848-13.527l106.65-81.009c1.695-1.285,3.722-1.966,5.811-1.966
			c0.44,0,0.886,0.031,1.331,0.092c2.555,0.348,4.818,1.674,6.38,3.727c1.562,2.053,2.227,4.588,1.874,7.148
			c-0.348,2.555-1.669,4.818-3.722,6.374c0,0,0,0,0,0.005L190.218,108.576z M49.254,337.983c-5.038,4.193-11.392,6.072-17.905,5.34
			c-6.508-0.747-12.268-4.029-16.23-9.247c-3.958-5.222-5.576-11.653-4.541-18.125s4.567-12.083,9.892-15.764l207.493-139.029
			l13.491,17.761L49.254,337.983z M203.166,111.597l93.138-70.743l74.378,97.925l-93.133,70.743L203.166,111.597z M399.037,150.801
			c-0.348,2.555-1.669,4.818-3.727,6.38l-106.65,81.004c-4.239,3.21-10.307,2.386-13.522-1.853
			c-1.562-2.048-2.227-4.588-1.879-7.142c0.348-2.555,1.674-4.818,3.727-6.38l106.65-81.009c1.695-1.29,3.722-1.966,5.811-1.966
			c0.44,0,0.886,0.031,1.331,0.092c2.555,0.348,4.818,1.674,6.38,3.732C398.72,145.707,399.385,148.246,399.037,150.801z"/>
	</g>
</g>
<g>
</g>
<g>
</g>
<g>
</g>
<g>
</g>
<g>
</g>
<g>
</g>
<g>
</g>
<g>
</g>
<g>
</g>
<g>
</g>
<g>
</g>
<g>
</g>
<g>
</g>
<g>
</g>
<g>
</g>
</svg>
