<?xml version="1.0" encoding="iso-8859-1"?>
<!-- Generator: Adobe Illustrator 19.0.0, SVG Export Plug-In . SVG Version: 6.00 Build 0)  -->
<svg version="1.1" id="Capa_1" xmlns="http://www.w3.org/2000/svg" xmlns:xlink="http://www.w3.org/1999/xlink" x="0px" y="0px"
	 viewBox="0 0 496 496" style="enable-background:new 0 0 496 496;" xml:space="preserve">
<g>
	<g>
		
			<rect x="24.818" y="395.432" transform="matrix(0.5898 -0.8076 0.8076 0.5898 -297.6609 220.8902)" width="87.548" height="16.001"/>
	</g>
</g>
<g>
	<g>
		
			<rect x="99.926" y="342.098" transform="matrix(0.5898 -0.8076 0.8076 0.5898 -238.6194 230.4499)" width="15.193" height="16.001"/>
	</g>
</g>
<g>
	<g>
		<path d="M224,0v217.472c-9.288,3.312-16,12.112-16,22.528s6.712,19.216,16,22.528v47.032c-14.296,5.08-27.288,13.64-37.76,24.696
			l-4.304-5.872C172.824,315.952,168,301.232,168,285.816v-71.288c9.288-3.312,16-12.112,16-22.528c0-13.232-10.768-24-24-24H96
			c-13.232,0-24,10.768-24,24c0,10.416,6.712,19.216,16,22.528v71.288c0,15.424-4.824,30.144-13.936,42.568l-63.6,86.728
			c-5.256,7.176-8.552,14.72-9.792,22.4c-2.376,14.728,1.736,29.6,11.288,40.832C21.52,489.56,35.456,496,50.184,496h154.264
			c7.832,0,15.352-1.72,22.136-4.792C236.216,494.336,246.088,496,256,496c47.472,0,86.904-34.672,94.552-80H496V0H224z M232,232h48
			c4.416,0,8,3.592,8,8s-3.584,8-8,8h-48c-4.416,0-8-3.592-8-8S227.584,232,232,232z M96,184h64c4.416,0,8,3.592,8,8s-3.584,8-8,8
			H96c-4.416,0-8-3.592-8-8S91.584,184,96,184z M236.6,460.76c-5.52,11.688-18.144,19.24-32.144,19.24H50.184
			c-10.04,0-19.528-4.392-26.048-12.04c-6.6-7.76-9.328-17.664-7.672-27.904c0.832-5.168,3.152-10.376,6.896-15.488l63.6-86.72
			C98.112,322.656,104,304.664,104,285.816V216h48v69.816c0,18.848,5.888,36.84,17.032,52.04l64.352,87.736
			C240.832,435.76,242.064,449.232,236.6,460.76z M256,480c-4.184,0-8.368-0.384-12.52-1.064c3.032-3.384,5.624-7.168,7.592-11.336
			c7.968-16.84,6.144-36.568-4.784-51.48l-50.416-68.744c10.168-11.56,23.568-20.104,38.312-24.288l5.816-1.64V264h32v57.448
			l5.824,1.648C312.08,332.808,336,364.424,336,400C336,444.112,300.112,480,256,480z M448,400h-96
			c0-40.648-26.032-77.008-64-90.448V262.52c9.288-3.312,16-12.112,16-22.528c0-13.232-10.768-24-24-24h-8V48h176V400z M480,400h-16
			V32H256v184h-16V16h240V400z"/>
	</g>
</g>
<g>
	<g>
		<path d="M288,64v48h144V64H288z M416,96H304V80h112V96z"/>
	</g>
</g>
<g>
	<g>
		<path d="M24,64C10.768,64,0,74.768,0,88s10.768,24,24,24s24-10.768,24-24S37.232,64,24,64z M24,96c-4.416,0-8-3.592-8-8
			s3.584-8,8-8s8,3.592,8,8S28.416,96,24,96z"/>
	</g>
</g>
<g>
	<g>
		<path d="M144,104c-13.232,0-24,10.768-24,24s10.768,24,24,24s24-10.768,24-24S157.232,104,144,104z M144,136c-4.416,0-8-3.592-8-8
			s3.584-8,8-8s8,3.592,8,8S148.416,136,144,136z"/>
	</g>
</g>
<g>
	<g>
		<path d="M128,0c-13.232,0-24,10.768-24,24s10.768,24,24,24s24-10.768,24-24S141.232,0,128,0z M128,32c-4.416,0-8-3.592-8-8
			s3.584-8,8-8s8,3.592,8,8S132.416,32,128,32z"/>
	</g>
</g>
<g>
	<g>
		<rect x="416" y="208" width="16" height="48"/>
	</g>
</g>
<g>
	<g>
		<path d="M290.552,346.128l-8.64,13.472C295.744,368.472,304,383.576,304,400c0,12.632-4.864,24.56-13.712,33.584l11.424,11.2
			C313.504,432.752,320,416.84,320,400C320,378.112,308.992,357.968,290.552,346.128z"/>
	</g>
</g>
<g>
	<g>
		<path d="M256,336v16c4.864,0,9.672,0.728,14.288,2.16l4.736-15.28C268.872,336.968,262.48,336,256,336z"/>
	</g>
</g>
<g>
</g>
<g>
</g>
<g>
</g>
<g>
</g>
<g>
</g>
<g>
</g>
<g>
</g>
<g>
</g>
<g>
</g>
<g>
</g>
<g>
</g>
<g>
</g>
<g>
</g>
<g>
</g>
<g>
</g>
</svg>
